M48
;Layer_Color=9474304
;FILE_FORMAT=2:3
INCH,LZ
;TYPE=PLATED
T1F00S00C0.012
T2F00S00C0.035
%
T01
X00189Y00138
X00213Y00173
X00346Y00142
X00362Y00114
X00358Y00063
X00474Y00064
X00535Y00055
X00567Y00138
X00598Y00236
X00591Y00417
X00701Y00413
X00693Y00335
X00413Y00311
X00434Y00408
X00336Y00425
X00287Y00327
X0019Y00355
X00135Y00301
X00059Y0039
X0035Y00248
X00402Y00205
T02
X0065Y00176
Y00276
Y00376
Y00476
M30
