G04 Layer_Color=32896*
%FSLAX25Y25*%
%MOIN*%
G70*
G01*
G75*
%ADD25C,0.00394*%
%ADD27C,0.00591*%
%ADD28C,0.00500*%
D25*
X14961Y17914D02*
X16142D01*
X15551Y17323D02*
Y18504D01*
D27*
X5118Y7283D02*
G03*
X6102Y6299I984J0D01*
G01*
Y25787D02*
G03*
X5118Y24803I0J-984D01*
G01*
X17323Y24803D02*
G03*
X16339Y25787I-984J0D01*
G01*
Y6299D02*
G03*
X17323Y7283I0J984D01*
G01*
X39764Y44882D02*
Y50590D01*
X31890Y48622D02*
Y50590D01*
Y41142D02*
Y44291D01*
Y35039D02*
Y36811D01*
X39764Y35039D02*
Y40551D01*
X31890Y35039D02*
X39764D01*
X31890Y50590D02*
X39764D01*
X5118Y34843D02*
X12992D01*
X5118Y50394D02*
X12992D01*
X5118Y44882D02*
Y50394D01*
X12992Y48622D02*
Y50394D01*
Y41142D02*
Y44291D01*
Y34843D02*
Y36811D01*
X5118Y34843D02*
Y40551D01*
X18898Y35039D02*
X26772D01*
X18898D02*
Y50590D01*
X26772D01*
Y35039D02*
Y50590D01*
X5118Y7284D02*
Y24803D01*
X6102Y25788D02*
X16339D01*
X17323Y7284D02*
Y24803D01*
X6102Y6299D02*
X16339D01*
X23425Y21063D02*
X32480D01*
Y11024D02*
Y21063D01*
X23425Y11024D02*
X32480D01*
X23425D02*
Y21063D01*
D28*
X44882Y25984D02*
Y22985D01*
X46381D01*
X46881Y23485D01*
Y24485D01*
X46381Y24985D01*
X44882D01*
X45882D02*
X46881Y25984D01*
X49880Y22985D02*
X48880Y23485D01*
X47881Y24485D01*
Y25484D01*
X48381Y25984D01*
X49380D01*
X49880Y25484D01*
Y24985D01*
X49380Y24485D01*
X47881D01*
X52362Y25984D02*
Y22985D01*
X53862D01*
X54362Y23485D01*
Y24485D01*
X53862Y24985D01*
X52362D01*
X53362D02*
X54362Y25984D01*
X57361Y22985D02*
X55361D01*
Y24485D01*
X56361Y23985D01*
X56861D01*
X57361Y24485D01*
Y25484D01*
X56861Y25984D01*
X55861D01*
X55361Y25484D01*
X22472Y33358D02*
Y31359D01*
X21972Y30859D01*
X20972D01*
X20472Y31359D01*
Y33358D01*
X20972Y33858D01*
X21972D01*
X21472Y32859D02*
X22472Y33858D01*
X21972D02*
X22472Y33358D01*
X25471Y33858D02*
X23471D01*
X25471Y31859D01*
Y31359D01*
X24971Y30859D01*
X23971D01*
X23471Y31359D01*
X7874Y1725D02*
Y4724D01*
X9873D01*
X12873Y1725D02*
X10873D01*
Y4724D01*
X12873D01*
X10873Y3225D02*
X11873D01*
X13872Y1725D02*
Y4724D01*
X15372D01*
X15871Y4225D01*
Y2225D01*
X15372Y1725D01*
X13872D01*
X16871Y4724D02*
X17871D01*
X17371D01*
Y1725D01*
X16871Y2225D01*
X6724Y33358D02*
Y31359D01*
X6224Y30859D01*
X5224D01*
X4724Y31359D01*
Y33358D01*
X5224Y33858D01*
X6224D01*
X5724Y32859D02*
X6724Y33858D01*
X6224D02*
X6724Y33358D01*
X7723Y33858D02*
X8723D01*
X8223D01*
Y30859D01*
X7723Y31359D01*
X36857Y17323D02*
X33858D01*
Y18822D01*
X34358Y19322D01*
X36358D01*
X36857Y18822D01*
Y17323D01*
X33858Y20322D02*
Y21321D01*
Y20822D01*
X36857D01*
X36358Y20322D01*
X34283Y33555D02*
Y31556D01*
X33783Y31056D01*
X32783D01*
X32283Y31556D01*
Y33555D01*
X32783Y34055D01*
X33783D01*
X33283Y33055D02*
X34283Y34055D01*
X33783D02*
X34283Y33555D01*
X35282Y31556D02*
X35782Y31056D01*
X36782D01*
X37282Y31556D01*
Y32056D01*
X36782Y32555D01*
X36282D01*
X36782D01*
X37282Y33055D01*
Y33555D01*
X36782Y34055D01*
X35782D01*
X35282Y33555D01*
X50363Y11161D02*
X50863Y11660D01*
X51862D01*
X52362Y11161D01*
Y9161D01*
X51862Y8662D01*
X50863D01*
X50363Y9161D01*
X49363Y8662D02*
X48364D01*
X48863D01*
Y11660D01*
X49363Y11161D01*
X49213Y49606D02*
Y52605D01*
X47713D01*
X47213Y52105D01*
Y51106D01*
X47713Y50606D01*
X49213D01*
X48213D02*
X47213Y49606D01*
X46214D02*
X45214D01*
X45714D01*
Y52605D01*
X46214Y52105D01*
X43714D02*
X43214Y52605D01*
X42215D01*
X41715Y52105D01*
Y50106D01*
X42215Y49606D01*
X43214D01*
X43714Y50106D01*
Y52105D01*
X57480Y49606D02*
Y52605D01*
X55981D01*
X55481Y52105D01*
Y51106D01*
X55981Y50606D01*
X57480D01*
X56481D02*
X55481Y49606D01*
X54481Y50106D02*
X53981Y49606D01*
X52982D01*
X52482Y50106D01*
Y52105D01*
X52982Y52605D01*
X53981D01*
X54481Y52105D01*
Y51606D01*
X53981Y51106D01*
X52482D01*
M02*
