G04 Layer_Physical_Order=1*
G04 Layer_Color=255*
%FSLAX23Y23*%
%MOIN*%
G70*
G01*
G75*
%ADD10R,0.018X0.043*%
%ADD11R,0.022X0.039*%
%ADD12R,0.035X0.031*%
%ADD13R,0.063X0.059*%
%ADD14R,0.047X0.047*%
%ADD15R,0.031X0.035*%
%ADD16R,0.038X0.011*%
%ADD17C,0.010*%
%ADD18R,0.059X0.059*%
%ADD19C,0.059*%
%ADD20C,0.028*%
G36*
X650Y530D02*
Y482D01*
X580Y412D01*
X577Y407D01*
X576Y401D01*
Y397D01*
X574Y395D01*
X572Y393D01*
X481D01*
X479Y397D01*
X480Y401D01*
X483D01*
X487Y402D01*
X490Y404D01*
X492Y408D01*
X493Y412D01*
Y412D01*
X512D01*
Y412D01*
X513Y408D01*
X515Y404D01*
X518Y402D01*
X522Y401D01*
X558D01*
X562Y402D01*
X565Y404D01*
X567Y408D01*
X568Y412D01*
Y443D01*
X567Y447D01*
X565Y450D01*
X562Y452D01*
X562Y455D01*
X562Y458D01*
X565Y460D01*
X567Y463D01*
X568Y467D01*
Y467D01*
X584D01*
X585Y465D01*
X593Y460D01*
X597Y459D01*
Y483D01*
Y506D01*
X593Y505D01*
X585Y500D01*
X584Y498D01*
X568D01*
Y498D01*
X567Y502D01*
X565Y506D01*
X562Y508D01*
X558Y509D01*
X545D01*
Y483D01*
X540D01*
Y478D01*
X512D01*
Y467D01*
X513Y463D01*
X515Y460D01*
X518Y458D01*
X518Y455D01*
X518Y452D01*
X515Y450D01*
X513Y447D01*
X512Y443D01*
Y443D01*
X493D01*
Y443D01*
X492Y447D01*
X490Y450D01*
X487Y452D01*
X487Y455D01*
X487Y458D01*
X490Y460D01*
X492Y463D01*
X493Y467D01*
Y498D01*
X492Y502D01*
X490Y506D01*
X487Y508D01*
X483Y509D01*
X447D01*
X443Y508D01*
X440Y506D01*
X439Y505D01*
X439Y505D01*
X413D01*
Y515D01*
X412Y518D01*
X410Y522D01*
X407Y524D01*
X403Y525D01*
X366D01*
X362Y524D01*
X358Y522D01*
X356Y518D01*
X355Y515D01*
Y505D01*
X292D01*
X271Y527D01*
X272Y531D01*
X649D01*
X650Y530D01*
D02*
G37*
G36*
X720Y460D02*
Y433D01*
X715Y431D01*
X710Y435D01*
X700Y439D01*
X695Y439D01*
Y400D01*
Y361D01*
X700Y361D01*
X710Y365D01*
X715Y369D01*
X720Y367D01*
Y333D01*
X715Y331D01*
X710Y335D01*
X700Y339D01*
X690Y340D01*
X680Y339D01*
X670Y335D01*
X662Y328D01*
X655Y320D01*
X651Y310D01*
X650Y300D01*
X651Y290D01*
X655Y280D01*
X662Y272D01*
X670Y265D01*
X680Y261D01*
X690Y260D01*
X700Y261D01*
X710Y265D01*
X715Y269D01*
X720Y267D01*
Y251D01*
X705Y237D01*
X700Y239D01*
X690Y240D01*
X680Y239D01*
X670Y235D01*
X662Y228D01*
X655Y220D01*
X651Y210D01*
X650Y200D01*
X651Y190D01*
X655Y180D01*
X662Y172D01*
X670Y165D01*
X680Y161D01*
X690Y160D01*
X700Y161D01*
X710Y165D01*
X718Y172D01*
X725Y180D01*
X729Y190D01*
X730Y200D01*
X729Y210D01*
X727Y215D01*
X735Y223D01*
X740Y222D01*
Y15D01*
X15D01*
Y436D01*
X16Y437D01*
X20Y438D01*
X39Y419D01*
X44Y416D01*
X50Y415D01*
X79D01*
X79Y414D01*
X77Y409D01*
X76D01*
X72Y409D01*
X72Y409D01*
X72Y409D01*
X68Y409D01*
X64D01*
Y378D01*
Y346D01*
X68D01*
X72Y347D01*
X72Y347D01*
X72Y347D01*
X76Y346D01*
X94D01*
X98Y347D01*
X101Y344D01*
X102Y342D01*
X102Y341D01*
X102Y340D01*
X102Y338D01*
X99Y336D01*
X96Y331D01*
X95Y325D01*
Y291D01*
X92Y290D01*
X87Y282D01*
X85Y273D01*
X87Y263D01*
X92Y255D01*
X100Y250D01*
X110Y248D01*
X115Y249D01*
X120Y245D01*
Y245D01*
X121Y239D01*
X124Y234D01*
X126Y233D01*
X124Y227D01*
X123Y226D01*
X121Y223D01*
X120Y219D01*
Y171D01*
X121Y167D01*
X123Y164D01*
X126Y162D01*
X130Y161D01*
X163D01*
X166Y157D01*
X166Y157D01*
Y103D01*
X167Y97D01*
X170Y92D01*
X228Y34D01*
X233Y31D01*
X239Y30D01*
X405D01*
X411Y31D01*
X416Y34D01*
X422Y40D01*
X441D01*
X445Y41D01*
X448Y43D01*
X454Y43D01*
X471Y27D01*
X476Y23D01*
X482Y22D01*
X558D01*
X564Y23D01*
X569Y27D01*
X574Y32D01*
X582D01*
Y32D01*
X583Y28D01*
X585Y24D01*
X588Y22D01*
X592Y21D01*
X628D01*
X632Y22D01*
X635Y24D01*
X637Y28D01*
X638Y32D01*
Y32D01*
X647Y32D01*
X657D01*
Y32D01*
X658Y28D01*
X660Y24D01*
X663Y22D01*
X667Y21D01*
X703D01*
X707Y22D01*
X710Y24D01*
X712Y28D01*
X713Y32D01*
Y63D01*
X712Y67D01*
X710Y70D01*
X707Y72D01*
X707Y75D01*
X707Y78D01*
X710Y80D01*
X712Y83D01*
X713Y87D01*
Y118D01*
X712Y122D01*
X710Y126D01*
X707Y128D01*
X703Y129D01*
X667D01*
X663Y128D01*
X660Y126D01*
X658Y122D01*
X657Y118D01*
Y118D01*
X647D01*
X647Y118D01*
X647Y118D01*
X638Y118D01*
X638Y118D01*
X637Y122D01*
X635Y126D01*
X632Y128D01*
X628Y129D01*
X592D01*
X588Y128D01*
X585Y126D01*
X584Y124D01*
X552D01*
X524Y152D01*
X525Y153D01*
X526Y157D01*
Y196D01*
X525Y200D01*
X523Y203D01*
X520Y205D01*
Y208D01*
X519Y214D01*
X516Y219D01*
X489Y245D01*
X490Y249D01*
X492Y253D01*
X493Y257D01*
Y288D01*
X492Y292D01*
X490Y295D01*
X487Y297D01*
X487Y300D01*
X487Y303D01*
X490Y305D01*
X492Y308D01*
X493Y312D01*
Y312D01*
X502Y312D01*
X512D01*
Y312D01*
X513Y308D01*
X515Y305D01*
X518Y303D01*
X518Y300D01*
X518Y297D01*
X515Y295D01*
X513Y292D01*
X512Y288D01*
Y277D01*
X540D01*
X568D01*
Y288D01*
X567Y292D01*
X565Y295D01*
X562Y297D01*
X562Y300D01*
X562Y303D01*
X565Y305D01*
X567Y308D01*
X568Y312D01*
Y343D01*
X567Y347D01*
X565Y351D01*
X562Y353D01*
X558Y354D01*
X522D01*
X518Y353D01*
X515Y351D01*
X513Y347D01*
X512Y343D01*
Y343D01*
X502D01*
X502Y343D01*
X502Y343D01*
X493Y343D01*
X493Y343D01*
X492Y347D01*
X490Y351D01*
X487Y353D01*
X483Y354D01*
X477D01*
X475Y359D01*
X479Y361D01*
X480Y363D01*
X572D01*
X574Y361D01*
X582Y355D01*
X591Y354D01*
X600Y355D01*
X608Y361D01*
X614Y369D01*
X615Y378D01*
X614Y387D01*
X608Y395D01*
X608Y397D01*
X672Y460D01*
X720D01*
X720Y460D01*
D02*
G37*
G36*
X310Y198D02*
X308Y193D01*
X297D01*
X293Y192D01*
X290Y190D01*
X288Y187D01*
X285Y187D01*
X282Y187D01*
X280Y190D01*
X277Y192D01*
X273Y193D01*
X242D01*
X238Y192D01*
X238Y194D01*
X232Y202D01*
X229Y204D01*
X230Y210D01*
X232Y210D01*
X240Y215D01*
X245Y223D01*
X246Y228D01*
X223D01*
Y238D01*
X246D01*
X245Y242D01*
X241Y248D01*
X242Y250D01*
X243Y253D01*
X243Y253D01*
X246Y255D01*
X246Y255D01*
X252Y256D01*
X310Y198D01*
D02*
G37*
%LPC*%
G36*
X535Y509D02*
X522D01*
X518Y508D01*
X515Y506D01*
X513Y502D01*
X512Y498D01*
Y488D01*
X535D01*
Y509D01*
D02*
G37*
G36*
X607Y506D02*
Y488D01*
X626D01*
X625Y492D01*
X620Y500D01*
X612Y505D01*
X607Y506D01*
D02*
G37*
G36*
X626Y478D02*
X607D01*
Y459D01*
X612Y460D01*
X620Y465D01*
X625Y473D01*
X626Y478D01*
D02*
G37*
G36*
X568Y267D02*
X545D01*
Y246D01*
X558D01*
X562Y247D01*
X565Y249D01*
X567Y253D01*
X568Y257D01*
Y267D01*
D02*
G37*
G36*
X54Y373D02*
X40D01*
Y356D01*
X41Y352D01*
X43Y349D01*
X47Y347D01*
X51Y346D01*
X54D01*
Y373D01*
D02*
G37*
G36*
X535Y267D02*
X512D01*
Y257D01*
X513Y253D01*
X515Y249D01*
X518Y247D01*
X522Y246D01*
X535D01*
Y267D01*
D02*
G37*
G36*
X65Y339D02*
X56Y338D01*
X48Y332D01*
X42Y324D01*
X41Y315D01*
X42Y306D01*
X48Y298D01*
X50Y296D01*
Y228D01*
X47Y228D01*
X44Y226D01*
X42Y223D01*
X41Y219D01*
Y171D01*
X42Y167D01*
X44Y164D01*
X47Y162D01*
X51Y161D01*
X60D01*
Y147D01*
X61Y141D01*
X64Y136D01*
X89Y111D01*
X87Y107D01*
X83D01*
X79Y106D01*
X76Y104D01*
X73Y100D01*
X73Y97D01*
Y38D01*
X73Y34D01*
X76Y30D01*
X79Y28D01*
X83Y27D01*
X146D01*
X150Y28D01*
X153Y30D01*
X155Y34D01*
X156Y38D01*
Y97D01*
X155Y100D01*
X153Y104D01*
X150Y106D01*
X146Y107D01*
X130D01*
Y108D01*
X128Y113D01*
X125Y118D01*
X90Y153D01*
Y161D01*
X99D01*
X103Y162D01*
X106Y164D01*
X108Y167D01*
X109Y171D01*
Y219D01*
X108Y223D01*
X106Y226D01*
X103Y228D01*
X99Y229D01*
X83D01*
X80Y231D01*
Y296D01*
X82Y298D01*
X88Y306D01*
X89Y315D01*
X88Y324D01*
X82Y332D01*
X74Y338D01*
X65Y339D01*
D02*
G37*
G36*
X685Y395D02*
X651D01*
X651Y390D01*
X655Y380D01*
X662Y372D01*
X670Y365D01*
X680Y361D01*
X685Y361D01*
Y395D01*
D02*
G37*
G36*
X54Y409D02*
X51D01*
X47Y409D01*
X43Y407D01*
X41Y403D01*
X40Y399D01*
Y383D01*
X54D01*
Y409D01*
D02*
G37*
G36*
X685Y439D02*
X680Y439D01*
X670Y435D01*
X662Y428D01*
X655Y420D01*
X651Y410D01*
X651Y405D01*
X685D01*
Y439D01*
D02*
G37*
%LPD*%
D10*
X111Y480D02*
D03*
X85D02*
D03*
X59D02*
D03*
X136Y378D02*
D03*
X111D02*
D03*
X85D02*
D03*
X59D02*
D03*
X136Y480D02*
D03*
D11*
X430Y176D02*
D03*
X467D02*
D03*
X505D02*
D03*
Y70D02*
D03*
X430D02*
D03*
D12*
X685Y103D02*
D03*
Y47D02*
D03*
X465Y328D02*
D03*
Y272D02*
D03*
X610Y103D02*
D03*
Y47D02*
D03*
X540Y328D02*
D03*
Y272D02*
D03*
Y427D02*
D03*
Y483D02*
D03*
X465Y427D02*
D03*
Y483D02*
D03*
D13*
X114Y67D02*
D03*
D14*
X75Y195D02*
D03*
X154D02*
D03*
D15*
X257Y165D02*
D03*
X313D02*
D03*
X257Y80D02*
D03*
X313D02*
D03*
X167Y280D02*
D03*
X223D02*
D03*
D16*
X215Y371D02*
D03*
Y391D02*
D03*
Y411D02*
D03*
Y430D02*
D03*
Y450D02*
D03*
Y470D02*
D03*
Y489D02*
D03*
Y509D02*
D03*
X384D02*
D03*
Y489D02*
D03*
Y470D02*
D03*
Y450D02*
D03*
Y430D02*
D03*
Y411D02*
D03*
Y391D02*
D03*
Y371D02*
D03*
D17*
X380Y166D02*
X385Y161D01*
X386Y160D02*
X414D01*
X430Y176D01*
X288Y306D02*
Y354D01*
X545Y70D02*
X555Y80D01*
X604Y109D02*
X610Y103D01*
X546Y109D02*
X604D01*
X505Y150D02*
X546Y109D01*
X434Y300D02*
X461Y272D01*
X252Y278D02*
X345Y185D01*
X270Y285D02*
X339Y216D01*
X348Y156D02*
X351Y153D01*
X343Y156D02*
X348D01*
X334Y165D02*
X343Y156D01*
X313Y165D02*
X334D01*
X385Y160D02*
Y161D01*
X345Y185D02*
X355D01*
X351Y139D02*
X360Y130D01*
X351Y139D02*
Y153D01*
X335Y335D02*
Y365D01*
X270Y285D02*
Y315D01*
X252Y278D02*
Y308D01*
X240Y320D02*
X252Y308D01*
X247Y338D02*
X270Y315D01*
X298Y364D02*
Y371D01*
X288Y354D02*
X298Y364D01*
X306Y323D02*
Y347D01*
X316Y357D01*
Y424D01*
X239Y430D02*
X298Y371D01*
X348Y101D02*
X372D01*
X335Y114D02*
X348Y101D01*
X290Y114D02*
X335D01*
X352Y373D02*
X353Y372D01*
X352Y373D02*
Y411D01*
X318Y75D02*
X390D01*
X313Y80D02*
X318Y75D01*
X385Y114D02*
X486D01*
X372Y101D02*
X385Y114D01*
X139Y316D02*
X146Y324D01*
X132Y351D02*
Y374D01*
X125Y343D02*
X132Y351D01*
X125Y343D02*
X125D01*
X116Y334D02*
X125Y343D01*
X116Y331D02*
Y334D01*
X110Y325D02*
X116Y331D01*
X110Y273D02*
Y325D01*
X65Y225D02*
Y315D01*
X167Y280D02*
X175Y288D01*
X65Y225D02*
X80Y210D01*
X183Y359D02*
Y403D01*
Y359D02*
X197Y346D01*
Y333D02*
Y346D01*
X132Y374D02*
X136Y378D01*
X175Y288D02*
Y342D01*
X165Y352D02*
X175Y342D01*
X165Y352D02*
Y425D01*
X197Y333D02*
X210Y320D01*
X647Y47D02*
X685D01*
X610Y47D02*
X647Y47D01*
X430Y70D02*
X449D01*
X647Y103D02*
X685D01*
X610Y103D02*
X647Y103D01*
X352Y411D02*
X384D01*
X505Y176D02*
Y208D01*
X502Y328D02*
X540D01*
X465Y328D02*
X502Y328D01*
X461Y272D02*
X465D01*
X349Y450D02*
X384D01*
X334Y435D02*
X349Y450D01*
X465Y427D02*
X540D01*
X384Y470D02*
X424D01*
X446Y483D02*
X465D01*
X439Y489D02*
X446Y483D01*
X384Y489D02*
X439D01*
X286D02*
X384D01*
X247Y528D02*
X286Y489D01*
X119Y528D02*
X247D01*
X111Y520D02*
X119Y528D01*
X111Y480D02*
Y520D01*
X486Y114D02*
X505Y95D01*
X114Y67D02*
Y108D01*
X75Y147D02*
X114Y108D01*
X75Y147D02*
Y195D01*
X182Y474D02*
X186Y470D01*
X215D01*
Y489D01*
Y371D02*
Y391D01*
X154Y195D02*
Y226D01*
X505Y70D02*
Y95D01*
Y150D02*
Y176D01*
X568Y47D02*
X610D01*
X505Y70D02*
X545D01*
X191Y411D02*
X215D01*
X135Y245D02*
X154Y226D01*
X183Y403D02*
X191Y410D01*
X191D01*
Y411D01*
X136Y454D02*
X165Y425D01*
X136Y454D02*
Y474D01*
Y480D01*
X215Y345D02*
Y371D01*
Y345D02*
X222Y338D01*
X334Y366D02*
Y435D01*
X424Y470D02*
X444Y450D01*
X455D01*
X465Y440D01*
Y427D02*
Y440D01*
X239Y45D02*
X405D01*
X430Y70D01*
X70Y200D02*
X75Y195D01*
X30Y504D02*
X72Y546D01*
X30Y450D02*
Y504D01*
Y450D02*
X50Y430D01*
X90D01*
X111Y409D01*
Y378D02*
Y409D01*
X482Y37D02*
X558D01*
X449Y70D02*
X482Y37D01*
X558D02*
X568Y47D01*
X334Y366D02*
X335Y365D01*
X222Y338D02*
X247D01*
X210Y320D02*
X240D01*
X215Y450D02*
X215Y450D01*
X290D01*
X316Y424D01*
X215Y430D02*
X215Y430D01*
X239D01*
X467Y176D02*
Y198D01*
X139Y261D02*
Y316D01*
X135Y257D02*
X139Y261D01*
X135Y245D02*
Y257D01*
X110Y273D02*
X110Y273D01*
X384Y371D02*
X415Y341D01*
Y319D02*
X434Y300D01*
X353Y359D02*
Y372D01*
X415Y319D02*
Y330D01*
Y341D01*
X353Y359D02*
X360Y352D01*
X335Y335D02*
X347Y323D01*
X348D01*
X360Y352D02*
X360D01*
X384Y328D01*
Y313D02*
Y328D01*
X306Y323D02*
X344Y285D01*
X370D01*
X288Y306D02*
X349Y245D01*
X339Y216D02*
X390D01*
X430Y176D01*
X442Y244D02*
X469D01*
X505Y208D01*
X434Y251D02*
X442Y244D01*
X434Y251D02*
Y262D01*
X384Y313D02*
X434Y262D01*
X349Y245D02*
X405D01*
X690Y200D02*
X735Y245D01*
Y535D01*
X72Y546D02*
X724D01*
X735Y535D01*
X540Y483D02*
X602D01*
X405Y230D02*
Y245D01*
Y230D02*
X425Y210D01*
X455D01*
X467Y198D01*
X268Y114D02*
X290D01*
X257Y146D02*
X290Y114D01*
X257Y146D02*
Y165D01*
Y80D02*
Y104D01*
X268Y114D01*
X210Y140D02*
X232D01*
X181Y103D02*
Y157D01*
X232Y140D02*
X257Y165D01*
X181Y103D02*
X239Y45D01*
X215Y185D02*
Y191D01*
X223Y233D02*
Y280D01*
X181Y157D02*
X215Y191D01*
X384Y391D02*
X410D01*
X420Y381D01*
Y368D02*
Y381D01*
X430Y410D02*
X450Y390D01*
X462Y378D02*
Y379D01*
X450Y390D02*
X462Y378D01*
X450Y390D02*
X451D01*
X462Y379D01*
X384Y430D02*
X410D01*
X451Y390D01*
X420Y368D02*
X460Y328D01*
X465D01*
X70Y200D02*
X80Y210D01*
X136Y474D02*
X182D01*
X385Y161D02*
X386Y160D01*
X591Y401D02*
X690Y500D01*
X591Y378D02*
Y401D01*
X463Y378D02*
X591D01*
X462Y379D02*
X463Y378D01*
D18*
X690Y500D02*
D03*
D19*
Y400D02*
D03*
Y300D02*
D03*
Y200D02*
D03*
D20*
X555Y80D02*
D03*
X385Y160D02*
D03*
X355Y185D02*
D03*
X360Y130D02*
D03*
X390Y75D02*
D03*
X146Y324D02*
D03*
X65Y315D02*
D03*
X110Y273D02*
D03*
X415Y330D02*
D03*
X348Y323D02*
D03*
X370Y285D02*
D03*
X405Y245D02*
D03*
X602Y483D02*
D03*
X210Y140D02*
D03*
X215Y185D02*
D03*
X223Y233D02*
D03*
X462Y378D02*
D03*
X591Y378D02*
D03*
M02*
