M48
;Layer_Color=9474304
;FILE_FORMAT=2:3
INCH,LZ
;TYPE=PLATED
T1F00S00C0.012
T2F00S00C0.035
%
T01
X0021Y0014
X00215Y00185
X00223Y00233
X0011Y00273
X00065Y00315
X00146Y00324
X00348Y00323
X0037Y00285
X00405Y00245
X00415Y0033
X00462Y00378
X00591Y00378
X00602Y00483
X00555Y0008
X0039Y00075
X0036Y0013
X00385Y0016
X00355Y00185
T02
X0069Y002
Y003
Y004
Y005
M30
