G04 Layer_Color=255*
%FSLAX25Y25*%
%MOIN*%
G70*
G01*
G75*
%ADD10R,0.03150X0.03543*%
%ADD11R,0.03543X0.03150*%
%ADD12R,0.02165X0.03937*%
%ADD13R,0.01772X0.04331*%
%ADD14R,0.04724X0.04724*%
%ADD15R,0.06299X0.05905*%
%ADD16R,0.03752X0.01276*%
%ADD18C,0.05905*%
%ADD19R,0.05905X0.05905*%
D10*
X31102Y11417D02*
D03*
X25591D02*
D03*
X31102Y17717D02*
D03*
X25591D02*
D03*
X20472Y26378D02*
D03*
X14961D02*
D03*
D11*
X63779Y3543D02*
D03*
Y9055D02*
D03*
X52362Y50394D02*
D03*
Y44882D02*
D03*
X46457Y50394D02*
D03*
Y44882D02*
D03*
Y29134D02*
D03*
Y34646D02*
D03*
X52362Y29134D02*
D03*
Y34646D02*
D03*
X57874Y3543D02*
D03*
Y9055D02*
D03*
D12*
X44685Y9449D02*
D03*
X52166D02*
D03*
Y20079D02*
D03*
X48425D02*
D03*
X44685D02*
D03*
D13*
X12598Y44882D02*
D03*
X4921Y34646D02*
D03*
X7480D02*
D03*
X10040D02*
D03*
X12598D02*
D03*
X4921Y44882D02*
D03*
X7480D02*
D03*
X10040D02*
D03*
D14*
X16142Y18504D02*
D03*
X8268D02*
D03*
D15*
X12205Y5709D02*
D03*
D16*
X39764Y34646D02*
D03*
Y36614D02*
D03*
Y38583D02*
D03*
Y40551D02*
D03*
Y42520D02*
D03*
Y44488D02*
D03*
Y46457D02*
D03*
Y48425D02*
D03*
X22835D02*
D03*
Y46457D02*
D03*
Y44488D02*
D03*
Y42520D02*
D03*
Y40551D02*
D03*
Y38583D02*
D03*
Y36614D02*
D03*
Y34646D02*
D03*
D18*
X64961Y17559D02*
D03*
Y27559D02*
D03*
Y37559D02*
D03*
D19*
Y47559D02*
D03*
M02*
