G04 Layer_Color=8388736*
%FSLAX25Y25*%
%MOIN*%
G70*
G01*
G75*
%ADD29R,0.03950X0.04343*%
%ADD30R,0.04343X0.03950*%
%ADD31R,0.02716X0.04488*%
%ADD32R,0.02165X0.04724*%
%ADD33R,0.05118X0.05118*%
%ADD34R,0.06693X0.06299*%
%ADD35R,0.04146X0.01669*%
%ADD36C,0.06706*%
%ADD37R,0.06706X0.06706*%
%ADD38C,0.02600*%
D29*
X31102Y11417D02*
D03*
X25591D02*
D03*
X31102Y17717D02*
D03*
X25591D02*
D03*
X20472Y26378D02*
D03*
X14961D02*
D03*
D30*
X63779Y3543D02*
D03*
Y9055D02*
D03*
X52362Y50394D02*
D03*
Y44882D02*
D03*
X46457Y50394D02*
D03*
Y44882D02*
D03*
Y29134D02*
D03*
Y34646D02*
D03*
X52362Y29134D02*
D03*
Y34646D02*
D03*
X57874Y3543D02*
D03*
Y9055D02*
D03*
D31*
X44685Y9449D02*
D03*
X52166D02*
D03*
Y20079D02*
D03*
X48425D02*
D03*
X44685D02*
D03*
D32*
X12598Y44882D02*
D03*
X4921Y34646D02*
D03*
X7480D02*
D03*
X10040D02*
D03*
X12598D02*
D03*
X4921Y44882D02*
D03*
X7480D02*
D03*
X10040D02*
D03*
D33*
X16142Y18504D02*
D03*
X8268D02*
D03*
D34*
X12205Y5709D02*
D03*
D35*
X39764Y34646D02*
D03*
Y36614D02*
D03*
Y38583D02*
D03*
Y40551D02*
D03*
Y42520D02*
D03*
Y44488D02*
D03*
Y46457D02*
D03*
Y48425D02*
D03*
X22835D02*
D03*
Y46457D02*
D03*
Y44488D02*
D03*
Y42520D02*
D03*
Y40551D02*
D03*
Y38583D02*
D03*
Y36614D02*
D03*
Y34646D02*
D03*
D36*
X64961Y17559D02*
D03*
Y27559D02*
D03*
Y37559D02*
D03*
D37*
Y47559D02*
D03*
D38*
X13521Y30078D02*
D03*
X19020Y35478D02*
D03*
X21260Y17323D02*
D03*
X56693Y13780D02*
D03*
X53543Y5512D02*
D03*
X47383Y6408D02*
D03*
X40157Y20472D02*
D03*
X18898Y13780D02*
D03*
X5906Y38976D02*
D03*
X28740Y32677D02*
D03*
X41339Y31102D02*
D03*
X33562Y42520D02*
D03*
X59842Y23622D02*
D03*
X43440Y40784D02*
D03*
X69291Y33465D02*
D03*
X70079Y41339D02*
D03*
X34646Y14173D02*
D03*
X35039Y24803D02*
D03*
X36220Y11417D02*
D03*
X35827Y6299D02*
D03*
X59055Y41732D02*
D03*
M02*
