G04 Layer_Color=16711935*
%FSLAX25Y25*%
%MOIN*%
G70*
G01*
G75*
%ADD25C,0.00394*%
D25*
X31791Y9547D02*
Y13288D01*
X24902Y9547D02*
Y13288D01*
Y9547D02*
X31791D01*
X24902Y13288D02*
X31791D01*
Y15847D02*
Y19587D01*
X24902Y15847D02*
Y19587D01*
Y15847D02*
X31791D01*
X24902Y19587D02*
X31791D01*
X61910Y2854D02*
X65650D01*
X61910Y9744D02*
X65650D01*
X61910Y2854D02*
Y9744D01*
X65650Y2854D02*
Y9744D01*
X45374Y35335D02*
X49114D01*
X45374Y28445D02*
X49114D01*
X45374D02*
Y35335D01*
X49114Y28445D02*
Y35335D01*
X52461Y28445D02*
X56201D01*
X52461Y35335D02*
X56201D01*
Y28445D02*
Y35335D01*
X52461Y28445D02*
Y35335D01*
X45374Y40256D02*
X49114D01*
X45374Y47146D02*
X49114D01*
Y40256D02*
Y47146D01*
X45374Y40256D02*
Y47146D01*
X21161Y24508D02*
Y28248D01*
X14272Y24508D02*
Y28248D01*
Y24508D02*
X21161D01*
X14272Y28248D02*
X21161D01*
X52461Y47146D02*
X56201D01*
X52461Y40256D02*
X56201D01*
X52461D02*
Y47146D01*
X56201Y40256D02*
Y47146D01*
X51477Y13091D02*
Y16831D01*
X44587Y13091D02*
Y16831D01*
X51477D01*
X44587Y13091D02*
X51477D01*
X50492Y51083D02*
X54232D01*
X50492Y44193D02*
X54232D01*
Y51083D01*
X50492Y44193D02*
Y51083D01*
X44587D02*
X48327D01*
X44587Y44193D02*
X48327D01*
Y51083D01*
X44587Y44193D02*
Y51083D01*
X44587Y28445D02*
X48327D01*
X44587Y35335D02*
X48327D01*
X44587Y28445D02*
Y35335D01*
X48327Y28445D02*
Y35335D01*
X50492Y28445D02*
X54232D01*
X50492Y35335D02*
X54232D01*
X50492Y28445D02*
Y35335D01*
X54232Y28445D02*
Y35335D01*
X56004Y2855D02*
X59744D01*
X56004Y9744D02*
X59744D01*
X56004Y2855D02*
Y9744D01*
X59744Y2855D02*
Y9744D01*
M02*
