G04 Layer_Physical_Order=2*
G04 Layer_Color=16711680*
%FSLAX25Y25*%
%MOIN*%
G70*
G01*
G75*
%ADD10R,0.03150X0.03543*%
%ADD11R,0.03543X0.03150*%
%ADD17C,0.01000*%
%ADD18C,0.05905*%
%ADD19R,0.05905X0.05905*%
%ADD20C,0.01800*%
%ADD21R,0.03543X0.03150*%
%ADD22R,0.03937X0.05905*%
%ADD23R,0.04331X0.07480*%
%ADD24R,0.05512X0.07480*%
G36*
X51539Y44882D02*
X51617Y44492D01*
X51838Y44161D01*
X52132Y43964D01*
X52161Y43701D01*
X52132Y43437D01*
X51838Y43241D01*
X51617Y42910D01*
X51539Y42520D01*
Y39370D01*
X51617Y38980D01*
X51838Y38649D01*
X52169Y38428D01*
X52559Y38351D01*
X52801D01*
Y37240D01*
X52559D01*
X52169Y37163D01*
X51838Y36942D01*
X51617Y36611D01*
X51539Y36221D01*
Y33071D01*
X51617Y32681D01*
X51838Y32350D01*
X52132Y32153D01*
X52161Y31890D01*
X52132Y31626D01*
X51838Y31430D01*
X51617Y31099D01*
X51539Y30709D01*
Y30707D01*
X50035D01*
Y30709D01*
X49958Y31099D01*
X49737Y31430D01*
X49442Y31626D01*
X49413Y31890D01*
X49442Y32153D01*
X49737Y32350D01*
X49958Y32681D01*
X50035Y33071D01*
Y34146D01*
X47244D01*
X44453D01*
Y33071D01*
X44030Y32632D01*
X42469D01*
X42080Y32892D01*
X41339Y33040D01*
X40597Y32892D01*
X39969Y32472D01*
X39549Y31844D01*
X39401Y31102D01*
X39549Y30361D01*
X39969Y29732D01*
X40597Y29313D01*
X41339Y29165D01*
X42080Y29313D01*
X42469Y29573D01*
X44453D01*
Y27559D01*
X44530Y27169D01*
X44752Y26838D01*
X45082Y26617D01*
X45472Y26540D01*
X49016D01*
X49406Y26617D01*
X49737Y26838D01*
X49958Y27169D01*
X50035Y27559D01*
Y27649D01*
X51539D01*
Y27559D01*
X51617Y27169D01*
X51838Y26838D01*
X52169Y26617D01*
X52559Y26540D01*
X56102D01*
X56493Y26617D01*
X56823Y26838D01*
X57044Y27169D01*
X57122Y27559D01*
Y30709D01*
X57044Y31099D01*
X56823Y31430D01*
X56529Y31626D01*
X56500Y31890D01*
X56529Y32153D01*
X56823Y32350D01*
X57044Y32681D01*
X57122Y33071D01*
Y36221D01*
X57044Y36611D01*
X56823Y36942D01*
X56493Y37163D01*
X56102Y37240D01*
X55860D01*
Y38351D01*
X56102D01*
X56493Y38428D01*
X56823Y38649D01*
X57044Y38980D01*
X57122Y39370D01*
Y40305D01*
X57622Y40457D01*
X57685Y40362D01*
X58314Y39942D01*
X59055Y39795D01*
X59796Y39942D01*
X60425Y40362D01*
X60760Y40863D01*
X61320Y41010D01*
X61400Y40931D01*
X61759Y40691D01*
X61911Y40216D01*
X61917Y40085D01*
X61508Y39553D01*
X61110Y38591D01*
X61040Y38059D01*
X64961D01*
X68882D01*
X68812Y38591D01*
X68413Y39553D01*
X68322Y39672D01*
X68709Y39969D01*
X69337Y39549D01*
X70079Y39401D01*
X70820Y39549D01*
X71449Y39969D01*
X71593Y40184D01*
X72093Y40033D01*
Y1529D01*
X1529D01*
Y38291D01*
X2029Y38558D01*
X2223Y38429D01*
X2808Y38312D01*
X4100D01*
X4116Y38235D01*
X4376Y37845D01*
Y26516D01*
X4493Y25931D01*
X4824Y25435D01*
X4948Y25311D01*
X4886Y25000D01*
Y19095D01*
X4963Y18704D01*
X5184Y18374D01*
X5515Y18153D01*
X5905Y18075D01*
X7813D01*
Y17966D01*
X7929Y17381D01*
X8261Y16885D01*
X10778Y14368D01*
X10459Y13980D01*
X10233Y14131D01*
X9842Y14209D01*
X5905D01*
X5515Y14131D01*
X5184Y13910D01*
X4963Y13579D01*
X4886Y13189D01*
Y7284D01*
X4963Y6893D01*
X5184Y6563D01*
X5515Y6342D01*
X5905Y6264D01*
X9842D01*
X10233Y6342D01*
X10563Y6563D01*
X10784Y6893D01*
X10862Y7284D01*
Y13189D01*
X10784Y13579D01*
X10633Y13806D01*
X11022Y14124D01*
X11642Y13504D01*
X11579Y13189D01*
Y7284D01*
X11656Y6893D01*
X11877Y6563D01*
X12208Y6342D01*
X12598Y6264D01*
X16535D01*
X16926Y6342D01*
X17256Y6563D01*
X17477Y6893D01*
X17555Y7284D01*
Y11861D01*
X17996Y12097D01*
X18156Y11990D01*
X18898Y11842D01*
X19639Y11990D01*
X20267Y12410D01*
X20687Y13038D01*
X20835Y13780D01*
X20687Y14521D01*
X20296Y15106D01*
X20407Y15319D01*
X20574Y15522D01*
X21260Y15386D01*
X22001Y15533D01*
X22630Y15953D01*
X23050Y16581D01*
X23197Y17323D01*
X23050Y18064D01*
X22630Y18693D01*
X22001Y19113D01*
X21260Y19260D01*
X20518Y19113D01*
X20129Y18852D01*
X17754D01*
X17555Y19095D01*
Y25000D01*
X17477Y25390D01*
X17256Y25721D01*
X16926Y25942D01*
X16535Y26020D01*
X15956D01*
X15648Y26481D01*
X14304Y27826D01*
X14433Y28403D01*
X14651Y28549D01*
X23747D01*
X24177Y28150D01*
Y20670D01*
X24255Y20279D01*
X24476Y19949D01*
X24807Y19727D01*
X25197Y19650D01*
X26522D01*
X26540Y19560D01*
X26871Y19064D01*
X32844Y13092D01*
X33340Y12760D01*
X33340Y12760D01*
X33904Y12383D01*
X34376Y12290D01*
X34431Y12159D01*
X34324Y11621D01*
X33836Y11611D01*
X33813Y11615D01*
X33595Y11942D01*
X33264Y12162D01*
X32874Y12240D01*
X28543D01*
X28153Y12162D01*
X27953Y12029D01*
X27752Y12162D01*
X27362Y12240D01*
X23031D01*
X22641Y12162D01*
X22311Y11942D01*
X22090Y11611D01*
X22012Y11221D01*
Y3740D01*
X22090Y3350D01*
X22311Y3019D01*
X22641Y2798D01*
X23031Y2721D01*
X27362D01*
X27752Y2798D01*
X27953Y2932D01*
X28153Y2798D01*
X28543Y2721D01*
X32874D01*
X33264Y2798D01*
X33595Y3019D01*
X33816Y3350D01*
X33894Y3740D01*
Y4872D01*
X34394Y5024D01*
X34457Y4929D01*
X35085Y4509D01*
X35827Y4362D01*
X36568Y4509D01*
X36958Y4770D01*
X43464D01*
X45307Y2927D01*
X45803Y2595D01*
X46389Y2479D01*
X48377D01*
X48962Y2595D01*
X49458Y2927D01*
X50514Y3982D01*
X52412D01*
X52802Y3722D01*
X53543Y3575D01*
X54285Y3722D01*
X54913Y4142D01*
X55333Y4770D01*
X55480Y5512D01*
X55333Y6253D01*
X54913Y6882D01*
X54285Y7302D01*
X53543Y7449D01*
X52802Y7302D01*
X52412Y7041D01*
X50154D01*
X49947Y7541D01*
X52765Y10360D01*
X54802D01*
X55388Y10476D01*
X55884Y10808D01*
X56975Y11898D01*
X57434Y11990D01*
X58063Y12410D01*
X58483Y13038D01*
X58630Y13780D01*
X58483Y14521D01*
X58063Y15149D01*
X57434Y15569D01*
X56693Y15717D01*
X55952Y15569D01*
X55323Y15149D01*
X54903Y14521D01*
X54812Y14061D01*
X54169Y13418D01*
X53382D01*
Y14461D01*
X50788D01*
Y15461D01*
X53382D01*
Y16732D01*
X53304Y17122D01*
X53124Y17393D01*
X53193Y17652D01*
X53325Y17893D01*
X60513D01*
X60974Y17559D01*
X61110Y16527D01*
X61508Y15566D01*
X62142Y14740D01*
X62967Y14107D01*
X63929Y13708D01*
X64961Y13572D01*
X65993Y13708D01*
X66954Y14107D01*
X67780Y14740D01*
X68413Y15566D01*
X68812Y16527D01*
X68947Y17559D01*
X68812Y18591D01*
X68413Y19553D01*
X67780Y20378D01*
X66954Y21012D01*
X65993Y21410D01*
X64961Y21546D01*
X63929Y21410D01*
X63871Y21386D01*
X63587Y21810D01*
X65409Y23631D01*
X65993Y23708D01*
X66954Y24106D01*
X67780Y24740D01*
X68413Y25566D01*
X68812Y26527D01*
X68947Y27559D01*
X68812Y28591D01*
X68413Y29553D01*
X67780Y30378D01*
X67429Y30648D01*
X67598Y31148D01*
X68504D01*
X69089Y31264D01*
X69564Y31582D01*
X70033Y31675D01*
X70661Y32095D01*
X71081Y32723D01*
X71228Y33465D01*
X71081Y34206D01*
X70661Y34834D01*
X70033Y35254D01*
X69291Y35402D01*
X68823Y35309D01*
X68789Y35330D01*
X68491Y35752D01*
X68812Y36527D01*
X68882Y37059D01*
X64961D01*
X61040D01*
X61110Y36527D01*
X61508Y35566D01*
X62142Y34740D01*
X62381Y34556D01*
X62279Y34005D01*
X61911Y33759D01*
X58761Y30609D01*
X58429Y30113D01*
X58313Y29528D01*
Y24753D01*
X58053Y24363D01*
X57905Y23622D01*
X57979Y23252D01*
X57584Y22751D01*
X45981D01*
X33419Y35313D01*
Y36382D01*
X33661D01*
X34051Y36459D01*
X34382Y36680D01*
X34603Y37011D01*
X34681Y37401D01*
Y40551D01*
X34605Y40932D01*
X34932Y41150D01*
X34935Y41154D01*
X35360Y41438D01*
X35692Y41934D01*
X35808Y42520D01*
X35794Y42589D01*
X36511Y43305D01*
X36972Y43114D01*
Y41142D01*
X37050Y40751D01*
X37271Y40421D01*
X37602Y40200D01*
X37992Y40122D01*
X40195D01*
X40757Y39560D01*
X41253Y39229D01*
X41838Y39112D01*
X42522D01*
X42699Y38994D01*
X43440Y38846D01*
X44024Y38963D01*
X44230Y38970D01*
X44694Y38735D01*
X44752Y38649D01*
X45082Y38428D01*
X45473Y38351D01*
X46744D01*
Y40945D01*
X47244D01*
Y41445D01*
X50036D01*
Y42520D01*
X49958Y42910D01*
X49737Y43241D01*
X49442Y43437D01*
X49414Y43701D01*
X49442Y43964D01*
X49737Y44161D01*
X49958Y44492D01*
X50036Y44882D01*
Y44927D01*
X51539D01*
Y44882D01*
D02*
G37*
G36*
X34682Y27179D02*
X34517Y26637D01*
X34298Y26593D01*
X33669Y26173D01*
X33250Y25545D01*
X33202Y25303D01*
X35039D01*
Y24803D01*
X35539D01*
Y22965D01*
X35781Y23013D01*
X36409Y23433D01*
X36829Y24062D01*
X36873Y24281D01*
X37415Y24446D01*
X39176Y22685D01*
X39102Y22052D01*
X38788Y21842D01*
X38368Y21214D01*
X38220Y20472D01*
X38368Y19731D01*
X38788Y19103D01*
X39416Y18683D01*
X39836Y18599D01*
X42648Y15788D01*
Y14961D01*
X42681Y14793D01*
Y13189D01*
X42759Y12799D01*
X42980Y12468D01*
X43311Y12247D01*
X43701Y12169D01*
X43746D01*
Y10911D01*
X42842Y10007D01*
X38165D01*
X37898Y10507D01*
X38010Y10676D01*
X38058Y10917D01*
X36220D01*
Y11917D01*
X38058D01*
X38010Y12159D01*
X37590Y12787D01*
X36962Y13207D01*
X36490Y13301D01*
X36435Y13432D01*
X36583Y14173D01*
X36435Y14915D01*
X36015Y15543D01*
X35387Y15963D01*
X34646Y16110D01*
X34233Y16028D01*
X31053Y19208D01*
X31070Y19407D01*
X31184Y19784D01*
X31429Y19949D01*
X31651Y20279D01*
X31728Y20670D01*
Y28150D01*
X32159Y28549D01*
X33313D01*
X34682Y27179D01*
D02*
G37*
G36*
X72093Y42644D02*
X71593Y42493D01*
X71449Y42708D01*
X70820Y43128D01*
X70271Y43238D01*
X69991Y43425D01*
X69405Y43541D01*
X68960D01*
X68943Y43559D01*
X68739Y44041D01*
X68855Y44216D01*
X68933Y44607D01*
Y50512D01*
X68855Y50902D01*
X68634Y51233D01*
X68304Y51454D01*
X67913Y51531D01*
X62860D01*
X62724Y51736D01*
X60939Y53521D01*
X61131Y53983D01*
X72093D01*
Y42644D01*
D02*
G37*
G36*
X58313Y49275D02*
Y44950D01*
X57886Y44552D01*
X57826Y44538D01*
X57767Y44549D01*
X57395D01*
X57122Y44882D01*
Y48032D01*
X57044Y48422D01*
X56823Y48753D01*
X56493Y48974D01*
X56102Y49051D01*
X52559D01*
X52169Y48974D01*
X51838Y48753D01*
X51617Y48422D01*
X51539Y48032D01*
Y47986D01*
X50036D01*
Y48032D01*
X49958Y48422D01*
X49737Y48753D01*
X49406Y48974D01*
X49016Y49051D01*
X45473D01*
X45082Y48974D01*
X44752Y48753D01*
X44531Y48422D01*
X44453Y48032D01*
Y47647D01*
X37160D01*
X36575Y47530D01*
X36078Y47199D01*
X35143Y46263D01*
X34681Y46455D01*
Y48031D01*
X34603Y48422D01*
X34382Y48752D01*
X34051Y48973D01*
X33661Y49051D01*
X30118D01*
X29728Y48973D01*
X29397Y48752D01*
X29176Y48422D01*
X29098Y48031D01*
Y47986D01*
X28850D01*
X28265Y47870D01*
X27769Y47538D01*
X25690Y45459D01*
X25591Y45311D01*
X25000D01*
X24610Y45233D01*
X24279Y45012D01*
X24058Y44681D01*
X24050Y44640D01*
X23550Y44690D01*
Y48744D01*
X24408Y49602D01*
X57986D01*
X58313Y49275D01*
D02*
G37*
%LPC*%
G36*
X46744Y37240D02*
X45472D01*
X45082Y37163D01*
X44752Y36942D01*
X44530Y36611D01*
X44453Y36221D01*
Y35146D01*
X46744D01*
Y37240D01*
D02*
G37*
G36*
X50036Y40445D02*
X47744D01*
Y38351D01*
X49016D01*
X49406Y38428D01*
X49737Y38649D01*
X49958Y38980D01*
X50036Y39370D01*
Y40445D01*
D02*
G37*
G36*
X49016Y37240D02*
X47744D01*
Y35146D01*
X50035D01*
Y36221D01*
X49958Y36611D01*
X49737Y36942D01*
X49406Y37163D01*
X49016Y37240D01*
D02*
G37*
G36*
X34539Y24303D02*
X33202D01*
X33250Y24062D01*
X33669Y23433D01*
X34298Y23013D01*
X34539Y22965D01*
Y24303D01*
D02*
G37*
%LPD*%
D10*
X50788Y14961D02*
D03*
X45276D02*
D03*
D11*
X47244Y34646D02*
D03*
Y29134D02*
D03*
X54331D02*
D03*
Y34646D02*
D03*
X47244Y40945D02*
D03*
Y46457D02*
D03*
X54331D02*
D03*
Y40945D02*
D03*
D17*
X27953Y20146D02*
Y24410D01*
X12992Y37006D02*
Y38977D01*
Y37006D02*
X14521Y35478D01*
X28850Y46457D02*
X31890D01*
X26772Y44378D02*
X28850Y46457D01*
X26772Y42716D02*
Y44378D01*
X14567Y22047D02*
Y25399D01*
X9320Y28100D02*
X11142Y26278D01*
X9320Y28100D02*
Y45378D01*
X10399Y46457D01*
X12992D01*
X18898Y46457D02*
Y46478D01*
X12992Y46457D02*
Y46478D01*
X54321Y34646D02*
X54331D01*
X5118Y42717D02*
Y46076D01*
X22020Y41378D02*
Y49378D01*
X20720Y40078D02*
X22020Y41378D01*
X18898Y38976D02*
Y40078D01*
X54331Y29134D02*
Y29178D01*
X47244Y29134D02*
Y29178D01*
X44177Y14961D02*
X45276D01*
Y10278D02*
Y14961D01*
X40157Y20441D02*
X44177Y16421D01*
X64961Y25346D02*
Y27559D01*
X12526Y32478D02*
X21721D01*
X11120Y28846D02*
X14567Y25399D01*
X11120Y28846D02*
Y31072D01*
X12526Y32478D01*
X11142Y18712D02*
Y26278D01*
X31890Y37747D02*
Y38976D01*
X5118Y46076D02*
X10174Y51132D01*
X23774D01*
X22020Y49378D02*
X23774Y51132D01*
X63445Y17559D02*
X64961D01*
X14521Y35478D02*
X19020D01*
X11142Y18712D02*
X11142Y18712D01*
X12531Y17323D02*
X21260D01*
X11142Y18712D02*
X12531Y17323D01*
X7874Y22047D02*
X9342Y20579D01*
Y19458D02*
Y20579D01*
X9342Y19458D02*
X9342Y19458D01*
X9342Y17966D02*
Y19458D01*
X45276Y31102D02*
X47244Y29134D01*
Y29178D02*
X54331D01*
X56693Y13780D02*
X56719D01*
X54802Y11889D02*
X56693Y13780D01*
X52131Y11889D02*
X54802D01*
X47383Y7140D02*
X52131Y11889D01*
X47383Y6408D02*
Y7140D01*
X40157Y20441D02*
Y20472D01*
X46389Y4008D02*
X48377D01*
X49783Y5414D01*
Y5512D01*
X53543D01*
X21721Y32478D02*
X26772Y37529D01*
Y42716D01*
X9342Y17966D02*
X12820Y14489D01*
X18188D01*
X18898Y13780D01*
X5906Y26516D02*
Y38976D01*
Y26516D02*
X7874Y24548D01*
Y22047D02*
Y24548D01*
X54331Y34646D02*
Y40945D01*
X47244Y46457D02*
X54331D01*
X28740Y34598D02*
X31890Y37747D01*
Y34680D02*
Y37747D01*
X13521Y30078D02*
X33946D01*
X28740Y32677D02*
Y34598D01*
X41339Y31102D02*
X45276D01*
X33562Y42520D02*
X34279D01*
X58619Y51132D02*
X59842Y49909D01*
X23774Y51132D02*
X58619D01*
X59365Y52932D02*
X61642Y50654D01*
X9429Y52932D02*
X59365D01*
X2046Y45549D02*
X9429Y52932D01*
X2046Y40603D02*
Y45549D01*
Y40603D02*
X2808Y39842D01*
X5040D01*
X5906Y38976D01*
X45348Y21222D02*
X60837D01*
X64961Y25346D01*
X44602Y19422D02*
X61582D01*
X63445Y17559D01*
X47244Y46117D02*
Y46457D01*
X37160Y46117D02*
X47244D01*
X33562Y42520D02*
X37160Y46117D01*
X39764Y42716D02*
X41838Y40642D01*
X43298D01*
X43440Y40784D01*
X59842Y29528D02*
X62992Y32677D01*
X59842Y23622D02*
Y29528D01*
X54331Y40945D02*
X54409Y40866D01*
X62992Y32677D02*
X68504D01*
X69291Y33465D01*
X27953Y20146D02*
X33925Y14173D01*
X34646D01*
X33946Y30078D02*
X44602Y19422D01*
X36220Y11417D02*
X36538D01*
X43476Y8478D02*
X45276Y10278D01*
X44098Y6299D02*
X46389Y4008D01*
X35827Y6299D02*
X44098D01*
X34833Y8699D02*
X36972D01*
X33614Y7480D02*
X34833Y8699D01*
X30709Y7480D02*
X33614D01*
X36972Y8699D02*
X37193Y8478D01*
X43476D01*
X44177Y14961D02*
Y16421D01*
X31890Y34680D02*
X45348Y21222D01*
X69405Y42012D02*
X70079Y41339D01*
X61642Y47901D02*
Y50654D01*
X59842Y44651D02*
Y49909D01*
Y44651D02*
X62481Y42012D01*
X69405D01*
X56563Y43020D02*
X57767D01*
X59055Y41732D01*
X64619Y47901D02*
X64961Y47559D01*
X61642Y47901D02*
X64619D01*
X18898Y40078D02*
X20720D01*
X54409Y40866D02*
X56563Y43020D01*
X12992Y46478D02*
X18898D01*
D18*
X64961Y17559D02*
D03*
Y27559D02*
D03*
Y37559D02*
D03*
D19*
Y47559D02*
D03*
D20*
X13521Y30078D02*
D03*
X19020Y35478D02*
D03*
X21260Y17323D02*
D03*
X56693Y13780D02*
D03*
X53543Y5512D02*
D03*
X47383Y6408D02*
D03*
X40157Y20472D02*
D03*
X18898Y13780D02*
D03*
X5906Y38976D02*
D03*
X28740Y32677D02*
D03*
X41339Y31102D02*
D03*
X33562Y42520D02*
D03*
X59842Y23622D02*
D03*
X43440Y40784D02*
D03*
X69291Y33465D02*
D03*
X70079Y41339D02*
D03*
X34646Y14173D02*
D03*
X35039Y24803D02*
D03*
X36220Y11417D02*
D03*
X35827Y6299D02*
D03*
X59055Y41732D02*
D03*
D21*
X39764Y42716D02*
D03*
X31890Y46457D02*
D03*
Y38976D02*
D03*
X12992Y46457D02*
D03*
Y38977D02*
D03*
X5118Y42717D02*
D03*
X26772Y42716D02*
D03*
X18898Y46457D02*
D03*
Y38976D02*
D03*
D22*
X14567Y10236D02*
D03*
X7874D02*
D03*
Y22047D02*
D03*
X14567D02*
D03*
D23*
X30709Y7480D02*
D03*
X25197D02*
D03*
D24*
X27953Y24410D02*
D03*
M02*
